<svg width="193" height="42" fill="none" xmlns="http://www.w3.org/2000/svg"><g clip-path="url(#clip0)"><path d="M34.534 10.393L.06 20.904v-6.889L34.534 0v10.393z" fill="#09C"/><path d="M34.534 25.982L.06 31.237V24.35l34.474-8.76v10.393z" fill="#3C0"/><path d="M37.277 10.393l15.269 10.511v-6.889L37.277 0v10.393z" fill="#069"/><path d="M37.277 25.982l15.269 5.255V24.35l-15.269-8.76v10.393z" fill="#390"/><path d="M37.277 41.57h15.269v-6.888l-15.269-3.504V41.57z" fill="#069"/><path d="M6.442 34.027L0 34.682v6.947h6.442v-7.602zM14.315 33.227v8.402h20.278V31.178l-20.278 2.049z" fill="#09C"/><path d="M68.553 41.572l6.14-38.41h9.35l6.14 38.41h-6.054l-1.053-6.964h-7.42l-1.05 6.964h-6.053zm7.89-12.188h5.84L79.355 10.05l-2.912 19.335zM92.55 41.572V3.162h6.052V36.08h9.981v5.49H92.549v.001zM111.219 41.572V3.162h6.053V36.08h9.98v5.49h-16.033v.001zM129.378 32.357V12.375c0-3.07.795-5.446 2.384-7.125 1.589-1.678 3.865-2.517 6.83-2.517 2.964 0 5.236.84 6.817 2.517 1.58 1.679 2.37 4.054 2.37 7.125v19.982c0 3.072-.79 5.447-2.37 7.126-1.581 1.678-3.853 2.517-6.817 2.517-2.965 0-5.241-.84-6.83-2.517-1.59-1.679-2.384-4.054-2.384-7.126zm6.053.376c0 2.536 1.053 3.803 3.16 3.803 2.089 0 3.134-1.267 3.134-3.803V12c0-2.518-1.045-3.776-3.134-3.776-2.107 0-3.16 1.259-3.16 3.776v20.733zM151.195 32.357V12.375c0-3.089.767-5.468 2.303-7.138 1.535-1.67 3.788-2.504 6.756-2.504 2.969 0 5.268.835 6.898 2.504 1.628 1.67 2.443 4.05 2.443 7.138v3.75h-6.052V12c0-2.518-1.045-3.776-3.135-3.776-2.107 0-3.16 1.259-3.16 3.776v20.732c0 2.5 1.053 3.75 3.16 3.75 2.09 0 3.135-1.25 3.135-3.75v-5.49h6.052v5.115c0 3.09-.815 5.47-2.443 7.138-1.63 1.67-3.929 2.505-6.898 2.505-2.968 0-5.22-.834-6.756-2.505-1.535-1.669-2.303-4.048-2.303-7.138zM171.371 41.572l6.139-38.41h9.351L193 41.571h-6.053l-1.054-6.964h-7.42l-1.048 6.964h-6.054zm7.889-12.188h5.841l-2.929-19.335-2.912 19.335z" fill="#3A3A3A"/></g><defs><clipPath id="clip0"><path fill="#fff" d="M0 0h193v42H0z"/></clipPath></defs></svg>