<svg width="163" height="47" viewBox="0 0 163 47" fill="none" xmlns="http://www.w3.org/2000/svg">
<g clip-path="url(#clip0_905_373)">
<path d="M98.273 8.10162H87.8736C80.5522 8.10162 75.9786 12.7757 75.9786 18.0729V27.4556C75.9786 27.7845 76.2394 28.0442 76.5698 28.0442H98.273C98.6034 28.0442 98.8643 27.7845 98.8643 27.4556V8.6902C98.8643 8.36129 98.6034 8.10162 98.273 8.10162ZM91.5429 22.9373C91.5429 23.2663 91.2821 23.5259 90.9517 23.5259H83.9086C83.5781 23.5259 83.3173 23.2663 83.3173 22.9373V18.0902C83.3173 15.355 85.2128 12.6545 88.8126 12.6545H90.9517C91.2821 12.6545 91.5429 12.9141 91.5429 13.2431V22.9373ZM22.2945 8.10162H11.895C4.57367 8.10162 0 12.7757 0 18.0729C0 24.4261 4.57367 28.0442 11.895 28.0442H22.2771C22.6075 28.0442 22.8683 27.7845 22.8683 27.4556V8.6902C22.8857 8.36129 22.6249 8.10162 22.2945 8.10162ZM15.5644 23.4913C15.5644 23.4913 14.6775 23.5259 12.8167 23.5259C9.2169 23.5259 7.32135 20.8081 7.32135 18.0902C7.32135 15.355 9.2169 12.6372 12.8167 12.6372H14.9731C15.3035 12.6372 15.5644 12.8968 15.5644 13.2257V23.4913ZM72.6396 8.10162H62.2575C54.9362 8.10162 50.3625 12.7757 50.3625 18.0729C50.3625 24.4261 54.9362 28.0442 62.2575 28.0442H72.6396C72.97 28.0442 73.2309 27.7845 73.2309 27.4556V8.6902C73.2309 8.36129 72.97 8.10162 72.6396 8.10162ZM65.9095 23.4913C65.9095 23.4913 65.0226 23.5259 63.1618 23.5259C59.562 23.5259 57.6665 20.8081 57.6665 18.0902C57.6665 15.355 59.562 12.6545 63.1618 12.6545H65.3182C65.6487 12.6545 65.9095 12.9141 65.9095 13.2431V23.4913ZM47.9279 8.10162H37.5284C30.2071 8.10162 25.6334 12.7757 25.6334 18.0729V27.4556C25.6334 27.7845 25.8943 28.0442 26.2247 28.0442H32.3635C32.6939 28.0442 32.9548 27.7845 32.9548 27.4556V18.0729C32.9548 15.3377 34.8503 12.6372 38.4501 12.6372H40.6065C40.9369 12.6372 41.1978 12.8968 41.1978 13.2257V27.4729C41.1978 27.8018 41.4587 28.0615 41.7891 28.0615H47.9279C48.2583 28.0615 48.5191 27.8018 48.5191 27.4729V8.6902C48.5191 8.36129 48.2409 8.10162 47.9279 8.10162ZM123.906 8.10162H113.524C106.203 8.10162 101.629 12.7757 101.629 18.0729V27.4556C101.629 27.7845 101.89 28.0442 102.221 28.0442H123.924C124.254 28.0442 124.515 27.7845 124.515 27.4556V8.6902C124.498 8.36129 124.219 8.10162 123.906 8.10162ZM117.176 22.9373C117.176 23.2663 116.915 23.5259 116.585 23.5259H109.542C109.212 23.5259 108.951 23.2663 108.951 22.9373V18.0902C108.951 15.355 110.846 12.6545 114.446 12.6545H116.602C116.933 12.6545 117.194 12.9141 117.194 13.2431V22.9373H117.176ZM162.339 8.10162H155.609V15.2165C155.609 15.5454 155.348 15.8051 155.018 15.8051H147.975C147.644 15.8051 147.383 15.5454 147.383 15.2165V8.6902C147.383 8.36129 147.123 8.10162 146.792 8.10162H140.653C140.323 8.10162 140.062 8.36129 140.062 8.6902V27.4729C140.062 27.8018 140.323 28.0615 140.653 28.0615H146.775C147.105 28.0615 147.366 27.8018 147.366 27.4729V20.9466C147.366 20.6176 147.627 20.358 147.957 20.358H155C155.331 20.358 155.592 20.6176 155.592 20.9466V27.4729C155.592 27.8018 155.853 28.0615 156.183 28.0615H162.322C162.652 28.0615 162.913 27.8018 162.913 27.4729V8.6902C162.93 8.36129 162.67 8.10162 162.339 8.10162ZM130.045 0.0692065C129.524 -0.207773 128.95 0.363497 129.245 0.865523C129.889 1.95613 130.445 3.65263 130.445 6.28394C130.445 11.7197 127.245 14.5068 127.245 22.6084C127.245 30.8832 131.506 34.5359 134.497 36.0766C135.036 36.3535 135.575 35.765 135.28 35.2456C134.654 34.155 134.132 32.4758 134.132 29.8792C134.132 24.4434 137.332 21.7429 137.332 13.5547C137.314 5.26258 133.019 1.60991 130.045 0.0692065Z" fill="#EE1D23"/>
<path d="M2.95639 40.5256V44.8707H1.89558V40.5256H0.20871V39.6081H4.57369V40.5256H2.95639Z" fill="#3C3C3B"/>
<path d="M9.7908 44.2994C9.39082 44.6976 8.83433 44.9226 8.20827 44.9226C7.58222 44.9226 7.02573 44.6976 6.62575 44.2994C6.1736 43.832 5.99969 43.2608 5.99969 42.2221C5.99969 41.2007 6.1736 40.6295 6.62575 40.1621C7.02573 39.7639 7.56483 39.5388 8.20827 39.5388C8.85172 39.5388 9.39082 39.7639 9.7908 40.1621C10.2256 40.6121 10.3995 41.2007 10.3995 42.2048C10.3995 43.2608 10.2429 43.832 9.7908 44.2994ZM9.00823 40.8199C8.81694 40.6121 8.55608 40.4737 8.19088 40.4737C7.82569 40.4737 7.56483 40.6121 7.37354 40.8199C7.11268 41.1488 7.04312 41.6335 7.04312 42.2567C7.04312 42.9492 7.14746 43.3646 7.39093 43.6416C7.58222 43.8667 7.84308 43.9705 8.19088 43.9705C8.53869 43.9705 8.83433 43.832 9.00823 43.6243C9.2517 43.33 9.33865 42.8626 9.33865 42.2394C9.35604 41.5989 9.28648 41.1315 9.00823 40.8199Z" fill="#3C3C3B"/>
<path d="M16.4339 44.4552C16.1209 44.7668 15.6687 44.94 15.1122 44.94C14.5036 44.94 14.1558 44.7668 13.7558 44.3341V47H12.695V39.6081H13.7384V40.1621C14.1732 39.7293 14.4688 39.5562 15.1122 39.5562C16.0513 39.5562 16.6948 40.0063 16.9035 40.9238C16.9904 41.3046 17.0252 41.6508 17.0252 42.274C17.0252 43.3993 16.8513 44.0398 16.4339 44.4552ZM14.8514 40.491C14.4166 40.491 14.121 40.6641 13.9471 40.993C13.808 41.27 13.7558 41.6681 13.7558 42.274C13.7558 43.4858 14.0862 43.9878 14.8688 43.9878C15.6513 43.9878 15.9644 43.4858 15.9644 42.2394C15.9644 40.993 15.6513 40.491 14.8514 40.491Z" fill="#3C3C3B"/>
<path d="M20.4163 40.5256V44.8707H19.3555V39.6081H22.7814V40.5256H20.4163Z" fill="#3C3C3B"/>
<path d="M27.9463 44.2994C27.5463 44.6976 26.9898 44.9226 26.3638 44.9226C25.7377 44.9226 25.1812 44.6976 24.7813 44.2994C24.3291 43.832 24.1552 43.2608 24.1552 42.2221C24.1552 41.2007 24.3291 40.6295 24.7813 40.1621C25.1812 39.7639 25.7203 39.5388 26.3638 39.5388C27.0072 39.5388 27.5463 39.7639 27.9463 40.1621C28.3811 40.6121 28.555 41.2007 28.555 42.2048C28.5724 43.2608 28.3985 43.832 27.9463 44.2994ZM27.1811 40.8199C26.9898 40.6121 26.729 40.4737 26.3638 40.4737C25.9986 40.4737 25.7377 40.6121 25.5464 40.8199C25.2856 41.1488 25.216 41.6335 25.216 42.2567C25.216 42.9492 25.3204 43.3646 25.5638 43.6416C25.7551 43.8667 26.016 43.9705 26.3638 43.9705C26.7116 43.9705 27.0072 43.832 27.1811 43.6243C27.4246 43.33 27.5116 42.8626 27.5116 42.2394C27.5116 41.5989 27.4594 41.1315 27.1811 40.8199Z" fill="#3C3C3B"/>
<path d="M33.4764 44.8707H30.8505V39.6081H33.3895C34.3633 39.6081 34.9894 40.1621 34.9894 41.0276C34.9894 41.5643 34.7459 41.9278 34.2416 42.1529C34.7807 42.3952 35.059 42.7934 35.059 43.382C35.0764 44.2995 34.4677 44.8707 33.4764 44.8707ZM33.1634 40.439H31.9113V41.772H33.1634C33.6677 41.772 33.946 41.5297 33.946 41.0969C33.946 40.6641 33.6677 40.439 33.1634 40.439ZM33.233 42.5856H31.9113V44.0571H33.233C33.7373 44.0571 34.0329 43.7628 34.0329 43.3127C34.0329 42.8453 33.7373 42.5856 33.233 42.5856Z" fill="#3C3C3B"/>
<path d="M40.937 44.2994C40.537 44.6976 39.9805 44.9226 39.3545 44.9226C38.7284 44.9226 38.1719 44.6976 37.7719 44.2994C37.3198 43.832 37.1459 43.2608 37.1459 42.2221C37.1459 41.2007 37.3198 40.6295 37.7719 40.1621C38.1719 39.7639 38.711 39.5388 39.3545 39.5388C39.9979 39.5388 40.537 39.7639 40.937 40.1621C41.3717 40.6121 41.5456 41.2007 41.5456 42.2048C41.5456 43.2608 41.3891 43.832 40.937 44.2994ZM40.1544 40.8199C39.9631 40.6121 39.7023 40.4737 39.3371 40.4737C38.9893 40.4737 38.711 40.6121 38.5197 40.8199C38.2589 41.1488 38.1893 41.6335 38.1893 42.2567C38.1893 42.9492 38.2936 43.3646 38.5371 43.6416C38.7284 43.8667 38.9893 43.9705 39.3371 43.9705C39.6849 43.9705 39.9805 43.832 40.1544 43.6243C40.3979 43.33 40.4848 42.8626 40.4848 42.2394C40.5022 41.5989 40.4327 41.1315 40.1544 40.8199Z" fill="#3C3C3B"/>
<path d="M46.7453 41.495H43.702V42.4818H46.7453V41.495Z" fill="#3C3C3B"/>
<path d="M52.8667 44.4552C52.5537 44.7668 52.1016 44.94 51.5451 44.94C50.9364 44.94 50.5886 44.7668 50.1886 44.3341V47H49.1278V39.6081H50.1712V40.1621C50.606 39.7293 50.9016 39.5562 51.5451 39.5562C52.4842 39.5562 53.1276 40.0063 53.3363 40.9238C53.4232 41.3046 53.458 41.6508 53.458 42.274C53.458 43.3993 53.2841 44.0398 52.8667 44.4552ZM51.3016 40.491C50.8668 40.491 50.5712 40.6641 50.3973 40.993C50.2582 41.27 50.206 41.6681 50.206 42.274C50.206 43.4858 50.5364 43.9878 51.319 43.9878C52.1016 43.9878 52.4146 43.4858 52.4146 42.2394C52.4146 40.993 52.0842 40.491 51.3016 40.491Z" fill="#3C3C3B"/>
<path d="M59.2838 44.2994C58.8838 44.6976 58.3273 44.9226 57.7013 44.9226C57.0752 44.9226 56.5187 44.6976 56.1187 44.2994C55.6666 43.832 55.4927 43.2608 55.4927 42.2221C55.4927 41.2007 55.6666 40.6295 56.1187 40.1621C56.5187 39.7639 57.0578 39.5388 57.7013 39.5388C58.3447 39.5388 58.8838 39.7639 59.2838 40.1621C59.7185 40.6121 59.8924 41.2007 59.8924 42.2048C59.9098 43.2608 59.7359 43.832 59.2838 44.2994ZM58.5186 40.8199C58.3273 40.6121 58.0665 40.4737 57.7013 40.4737C57.3534 40.4737 57.0752 40.6121 56.8839 40.8199C56.6231 41.1488 56.5535 41.6335 56.5535 42.2567C56.5535 42.9492 56.6578 43.3646 56.9013 43.6416C57.0926 43.8667 57.3534 43.9705 57.7013 43.9705C58.0491 43.9705 58.3447 43.832 58.5186 43.6243C58.7621 43.33 58.849 42.8626 58.849 42.2394C58.849 41.5989 58.7795 41.1315 58.5186 40.8199Z" fill="#3C3C3B"/>
<path d="M63.8227 44.9226C62.988 44.9226 62.2228 44.7322 61.5967 44.161L62.2402 43.4858C62.6576 43.8667 63.1097 44.0225 63.6836 44.0225C64.2227 44.0225 64.7966 43.7628 64.7966 43.2781C64.7966 42.7934 64.4314 42.5683 63.8749 42.5683H63.0749V41.772H63.8575C64.3618 41.772 64.7096 41.5123 64.7096 41.0622C64.7096 40.6121 64.3096 40.4044 63.6836 40.4044C63.2314 40.4044 62.7967 40.5429 62.4141 40.8026L61.8228 40.1274C62.4141 39.6773 63.1097 39.5388 63.8749 39.5388C64.9009 39.5388 65.7704 40.0409 65.7704 40.9584C65.7704 41.4604 65.4748 41.9105 65.0053 42.1182C65.5096 42.3086 65.8574 42.7587 65.8574 43.3473C65.84 44.2994 64.9009 44.9226 63.8227 44.9226Z" fill="#3C3C3B"/>
<path d="M70.7615 44.8707H68.1355V39.6081H70.6745C71.6484 39.6081 72.2744 40.1621 72.2744 41.0276C72.2744 41.5643 72.031 41.9278 71.5266 42.1529C72.0657 42.3952 72.344 42.7934 72.344 43.382C72.3614 44.2995 71.7527 44.8707 70.7615 44.8707ZM70.4484 40.439H69.1963V41.772H70.4484C70.9527 41.772 71.231 41.5297 71.231 41.0969C71.231 40.6641 70.9527 40.439 70.4484 40.439ZM70.518 42.5856H69.1963V44.0571H70.518C71.0223 44.0571 71.3179 43.7628 71.3179 43.3127C71.3179 42.8453 71.0223 42.5856 70.518 42.5856Z" fill="#3C3C3B"/>
<path d="M77.5263 44.8707V44.386C77.0915 44.8188 76.7437 44.9226 76.1177 44.9226C74.9351 44.9226 74.2743 44.3514 74.2743 43.33C74.2743 42.3779 74.9699 41.8066 76.0829 41.8066H77.5089V41.4258C77.5089 40.7333 77.1611 40.4564 76.3264 40.4564C76.0307 40.4564 75.8046 40.491 75.6133 40.5948C75.4568 40.6641 75.3351 40.768 75.1786 40.9757L74.483 40.3179C74.7786 40.0063 74.9177 39.8851 75.1786 39.7639C75.4742 39.6254 75.8568 39.5562 76.3611 39.5562C77.8393 39.5562 78.5697 40.1621 78.5697 41.3565V44.8707H77.5263ZM77.5089 42.551H76.2568C75.6307 42.551 75.3003 42.7934 75.3003 43.2954C75.3003 43.7974 75.6307 44.0398 76.3437 44.0398C77.1611 44.0398 77.5089 43.7282 77.5089 42.9665V42.551Z" fill="#3C3C3B"/>
<path d="M86.604 44.8707L85.2997 42.6203L84.6041 43.4685V44.8707H83.5433V43.4685L82.8651 42.6203L81.5608 44.8707H80.3087L82.1695 41.7893L80.4826 39.6081H81.7347L83.5433 42.1182V39.6081H84.6041V42.1182L86.4301 39.6081H87.6648L85.9954 41.7893L87.8561 44.8707H86.604Z" fill="#3C3C3B"/>
<path d="M92.482 44.8707V44.386C92.0473 44.8188 91.6995 44.9226 91.0734 44.9226C89.8909 44.9226 89.23 44.3514 89.23 43.33C89.23 42.3779 89.9257 41.8066 91.0386 41.8066H92.4647V41.4258C92.4647 40.7333 92.1169 40.4564 91.2821 40.4564C90.9865 40.4564 90.7604 40.491 90.5691 40.5948C90.4126 40.6641 90.2909 40.768 90.1343 40.9757L89.4387 40.3179C89.7344 40.0063 89.8735 39.8851 90.1343 39.7639C90.43 39.6254 90.8126 39.5562 91.3169 39.5562C92.7951 39.5562 93.5255 40.1621 93.5255 41.3565V44.8707H92.482ZM92.482 42.551H91.2299C90.6039 42.551 90.2735 42.7934 90.2735 43.2954C90.2735 43.7974 90.6039 44.0398 91.3169 44.0398C92.1342 44.0398 92.482 43.7282 92.482 42.9665V42.551Z" fill="#3C3C3B"/>
<path d="M99.1947 44.8707V40.5256H97.647L97.5774 42.7588C97.5426 44.2475 96.8818 44.8707 95.9079 44.8707H95.334V43.9532H95.5601C95.9949 43.9532 96.4992 43.7282 96.534 42.5337L96.6209 39.6081H100.256V44.8707H99.1947Z" fill="#3C3C3B"/>
<path d="M105.264 44.8707H102.794V39.6081H103.855V41.5989H105.247C106.273 41.5989 106.951 42.2567 106.951 43.2435C106.986 44.1956 106.29 44.8707 105.264 44.8707ZM105.09 42.4645H103.873V44.0052H105.09C105.629 44.0052 105.925 43.7109 105.925 43.2262C105.925 42.7414 105.629 42.4645 105.09 42.4645Z" fill="#3C3C3B"/>
<path d="M112.238 44.8707V42.6203H110.116V44.8707H109.055V39.6081H110.116V41.7028H112.238V39.6081H113.298V44.8707H112.238Z" fill="#3C3C3B"/>
<path d="M119.159 44.8707V41.2354L116.898 44.8707H115.837V39.6081H116.898V43.1742L119.159 39.6081H120.22V44.8707H119.159Z" fill="#3C3C3B"/>
<path d="M126.08 44.8707V41.2527L123.819 44.8707H122.759V39.6081H123.819V43.1742L126.08 39.6081H127.141V44.8707H126.08ZM124.95 38.8464C123.959 38.8464 123.402 38.3444 123.263 37.4096H124.028C124.115 37.8077 124.393 38.0847 124.95 38.0847C125.506 38.0847 125.767 37.8077 125.854 37.4096H126.619C126.498 38.3444 125.941 38.8464 124.95 38.8464Z" fill="#3C3C3B"/>
<path d="M137.001 46.3249V44.8707H133.036V39.6081H134.097V43.9359H136.201V39.6081H137.28V43.9359H138.027V46.3249H137.001Z" fill="#3C3C3B"/>
<path d="M140.792 42.551C140.81 43.4339 141.192 44.0225 142.184 44.0225C142.723 44.0225 143.053 43.832 143.418 43.4685L144.079 44.109C143.488 44.6976 142.966 44.9226 142.132 44.9226C140.549 44.9226 139.732 43.9878 139.732 42.2048C139.732 40.5602 140.584 39.5388 141.975 39.5388C143.349 39.5388 144.201 40.5256 144.201 42.0663V42.551H140.792ZM141.975 40.4217C141.123 40.4217 140.81 41.0796 140.792 41.8066H143.175C143.123 41.0796 142.845 40.4217 141.975 40.4217Z" fill="#3C3C3B"/>
<path d="M149.644 44.8707V42.6203H147.54V44.8707H146.479V39.6081H147.54V41.7028H149.644V39.6081H150.705V44.8707H149.644Z" fill="#3C3C3B"/>
<path d="M155.261 40.5256V44.8707H154.2V40.5256H152.514V39.6081H156.879V40.5256H155.261Z" fill="#3C3C3B"/>
<path d="M162.409 44.4552C162.096 44.7668 161.644 44.94 161.087 44.94C160.478 44.94 160.131 44.7668 159.731 44.3341V47H158.67V39.6081H159.713V40.1621C160.148 39.7293 160.444 39.5562 161.087 39.5562C162.026 39.5562 162.67 40.0063 162.878 40.9238C162.965 41.3046 163 41.6508 163 42.274C163 43.3993 162.826 44.0398 162.409 44.4552ZM160.844 40.491C160.409 40.491 160.113 40.6641 159.939 40.993C159.8 41.27 159.748 41.6681 159.748 42.274C159.748 43.4858 160.078 43.9878 160.861 43.9878C161.644 43.9878 161.957 43.4858 161.957 42.2394C161.957 40.993 161.626 40.491 160.844 40.491Z" fill="#3C3C3B"/>
</g>
<defs>
<clipPath id="clip0_905_373">
<rect width="163" height="47" fill="white"/>
</clipPath>
</defs>
</svg>
